# xmcd
#
# Track frame offsets:
#	150
#	26142
#	43851
#	60978
#	81968
#	103303
#	118655
#	137073
#	163835
#	183738
#	204203
#	224952
#
# Disc length: 3252 seconds
#
# Revision: 1
# Processed by: cddbd v1.5.2PL0 Copyright (c) Steve Scherf et al.
# Submitted via: audiograbber 1.83.01
#
DISCID=ba0cb20c
DTITLE=Eric Clapton - Old Sock
DYEAR=2013
DGENRE=
TTITLE0=Further on Down the Road
TTITLE1=Angel
TTITLE2=The Folks Who Live on the Hill
TTITLE3=Gotta Get Over
TTITLE4=Till Your Well Runs Dry
TTITLE5=All of Me
TTITLE6=Born to Lose
TTITLE7=Still Got the Blues
TTITLE8=Goodnight Irene
TTITLE9=Your One and Only Man
TTITLE10=Every Little Thing
TTITLE11=Our Love Is Here to Stay
EXTD=
EXTT0=
EXTT1=
EXTT2=
EXTT3=
EXTT4=
EXTT5=
EXTT6=
EXTT7=
EXTT8=
EXTT9=
EXTT10=
EXTT11=
PLAYORDER=
